<?xml version="1.0" standalone="no"?>
<!DOCTYPE svg PUBLIC "-//W3C//DTD SVG 20010904//EN"
 "http://www.w3.org/TR/2001/REC-SVG-20010904/DTD/svg10.dtd">
<svg version="1.0" xmlns="http://www.w3.org/2000/svg"
 width="100.000000pt" height="100.000000pt" viewBox="0 0 100.000000 100.000000"
 preserveAspectRatio="xMidYMid meet">

<g transform="translate(0.000000,100.000000) scale(0.100000,-0.100000)"
fill="#000" stroke="none">
<path d="M722 988 c-25 -25 -11 -54 53 -118 l66 -65 -412 -5 c-378 -5 -413 -6
-423 -22 -8 -13 -8 -23 0 -35 10 -17 45 -18 423 -23 l412 -5 -66 -65 c-66 -65
-79 -96 -50 -120 8 -6 22 -9 32 -6 10 3 70 58 133 121 l115 115 -121 120 c-66
66 -127 120 -135 120 -8 0 -20 -5 -27 -12z"  fill="#000"/>
<path d="M147 329 c-9 -5 -24 -23 -32 -39 -13 -25 -22 -29 -62 -32 -35 -2 -48
-7 -48 -18 0 -11 13 -16 48 -18 40 -3 49 -7 62 -32 47 -91 185 -53 185 50 0
57 -42 100 -97 100 -21 0 -46 -5 -56 -11z"  fill="#000"/>
<path d="M447 329 c-9 -5 -24 -23 -32 -39 -12 -23 -22 -30 -45 -30 -23 0 -30
-4 -30 -20 0 -16 7 -20 30 -20 23 0 33 -7 45 -30 47 -91 185 -54 185 50 0 57
-42 100 -97 100 -21 0 -46 -5 -56 -11z"  fill="#000"/>
<path d="M747 329 c-9 -5 -24 -23 -32 -39 -12 -23 -22 -30 -45 -30 -23 0 -30
-4 -30 -20 0 -16 7 -20 30 -20 23 0 33 -7 45 -30 47 -91 185 -54 185 50 0 57
-42 100 -97 100 -21 0 -46 -5 -56 -11z"  fill="#000"/>
<path d="M940 240 c0 -17 5 -21 28 -18 16 2 27 9 27 18 0 9 -11 16 -27 18 -23
3 -28 -1 -28 -18z"/>
</g>
</svg>
