<?xml version="1.0" standalone="no"?>
<!DOCTYPE svg PUBLIC "-//W3C//DTD SVG 20010904//EN"
 "http://www.w3.org/TR/2001/REC-SVG-20010904/DTD/svg10.dtd">
<svg version="1.0" xmlns="http://www.w3.org/2000/svg"
 width="100.000000pt" height="100.000000pt" viewBox="0 0 100.000000 100.000000"
 preserveAspectRatio="xMidYMid meet">

<g transform="translate(0.000000,100.000000) scale(0.100000,-0.100000)"
fill="#000" stroke="none">
<path d="M825 910 l-48 -49 -38 34 c-40 36 -92 52 -131 40 -12 -4 -51 -34 -85
-68 -62 -60 -63 -61 -83 -42 -16 14 -23 16 -32 7 -9 -9 0 -25 42 -67 l54 -55
-62 -63 c-49 -49 -60 -65 -50 -75 10 -10 26 1 75 50 l63 63 77 -78 78 -77 -63
-63 c-49 -49 -60 -65 -50 -75 10 -10 26 1 75 50 l63 62 55 -54 c42 -42 58 -51
67 -42 9 9 7 16 -7 32 -19 20 -18 21 43 83 46 47 64 73 68 99 7 41 -14 93 -52
129 l-24 23 50 51 50 51 -43 42 -43 42 -49 -50z"  fill="#000"/>
<path d="M165 589 c-4 -5 1 -19 11 -30 17 -19 16 -21 -44 -82 -46 -47 -64 -73
-68 -99 -7 -41 14 -93 52 -129 l24 -23 -50 -51 -50 -51 43 -42 43 -42 48 49
49 50 40 -34 c43 -37 90 -51 129 -40 12 4 51 34 85 68 62 60 63 61 83 42 16
-14 23 -16 32 -7 10 10 -34 59 -197 222 -115 116 -213 210 -217 210 -4 0 -10
-5 -13 -11z"  fill="#000"/>
</g>
</svg>
