<?xml version="1.0" encoding="UTF-8"?><!DOCTYPE svg PUBLIC "-//W3C//DTD SVG 1.1//EN" "http://www.w3.org/Graphics/SVG/1.1/DTD/svg11.dtd"><svg xmlns="http://www.w3.org/2000/svg" xmlns:xlink="http://www.w3.org/1999/xlink" version="1.1" width="24" height="24" viewBox="0 0 24 24">
    
<g transform="scale(0.5)">
    <path fill="#000" 
    opacity="1" transform="translate(20,15)" d="M10,2H14A2,2 0 0,1 16,4V6H20A2,2 0 0,1 22,8V19A2,2 0 0,1 20,21H4C2.89,21 2,20.1 2,19V8C2,6.89 2.89,6 4,6H8V4C8,2.89 8.89,2 10,2M14,6V4H10V6H14Z" />

</g>
    
    <path d="M6.1,10L4,18V8H21A2,2 0 0,0 19,6H12L10,4H4A2,2 0 0,0 2,6V18A2,2 0 0,0 4,20H19C19.9,20 20.7,19.4 20.9,18.5L23.2,10H6.1M19,18H6L7.6,12H20.6L19,18Z" opacity="0.6" fill="#000" /></svg>
