<?xml version="1.0" encoding="UTF-8"?><!DOCTYPE svg PUBLIC "-//W3C//DTD SVG 1.1//EN" "http://www.w3.org/Graphics/SVG/1.1/DTD/svg11.dtd">
<svg xmlns="http://www.w3.org/2000/svg" xmlns:xlink="http://www.w3.org/1999/xlink" version="1.1" width="24" height="24" viewBox="0 0 24 24">
    <g transform="scale(0.5)">
            <path fill="#000" 
          opacity="1" transform="translate(20,15)" d="M10,2H14A2,2 0 0,1 16,4V6H20A2,2 0 0,1 22,8V19A2,2 0 0,1 20,21H4C2.89,21 2,20.1 2,19V8C2,6.89 2.89,6 4,6H8V4C8,2.89 8.89,2 10,2M14,6V4H10V6H14Z" />

</g>
        <g transform="scale(0.9)">
    <path d="M17 3H5C3.89 3 3 3.9 3 5V19C3 20.1 3.89 21 5 21H19C20.1 21 21 20.1 21 19V7L17 3M19 19H5V5H16.17L19 7.83V19M12 12C10.34 12 9 13.34 9 15S10.34 18 12 18 15 16.66 15 15 13.66 12 12 12M6 6H15V10H6V6Z" fill="#000" opacity="0.6" />
</g>
</svg>
